<svg width="48" height="106" viewBox="0 0 48 106" fill="none" xmlns="http://www.w3.org/2000/svg">
<path d="M13.4065 3.19804C15.9264 2.11602 19.5873 1.00762 23.3551 0.676432C21.0481 5.5372 17.5477 10.1239 14.8785 12.9991C13.4445 13.8659 11.2536 15.0245 9.30211 15.7108C8.31706 16.0572 7.41263 16.2761 6.7049 16.2864C5.99122 16.2968 5.55994 16.0985 5.37536 15.707C4.77714 14.4382 4.30236 12.4813 5.19563 10.2709C6.09004 8.05775 8.37571 5.54093 13.4065 3.19804ZM38.6098 15.2885C38.6099 15.2885 38.6099 15.2886 38.61 15.2886C41.5273 17.7651 43.9115 21.656 43.5622 27.4096L43.556 27.512L43.6243 27.5886C47.4918 31.9172 46.8929 37.9352 45.4493 41.6445C45.3331 41.8456 45.2094 42.0422 45.0785 42.2346L44.9834 42.3744L45.0797 42.5133C45.5894 43.2484 46.119 44.0689 46.6744 44.9862C47.2978 48.0831 47.2609 53.0652 44.7269 56.7885L44.6639 56.881L44.6923 56.9894C45.61 60.4886 45.6554 65.4218 42.3517 68.8837L42.2533 68.9869L42.2938 69.1236C42.9305 71.2711 43.049 73.5415 42.3101 75.7962C41.5739 78.0429 39.9793 80.2961 37.153 82.4065C35.6889 82.9418 33.2004 83.4358 30.122 83.3663L29.6313 83.3552L29.916 83.7551C31.4875 85.9622 32.5632 88.0994 32.8268 89.9901C33.0293 92.1459 32.8567 95.4688 31.6875 98.4258C30.5203 101.378 28.3727 103.94 24.6269 104.654C22.707 104.993 17.9654 104.959 14.2984 102.159L15.2813 78.7053L15.2821 78.6883L15.2804 78.6713L14.2933 68.4647V59.8301V50.4049C19.843 50.8887 29.2652 50.7916 36.5961 48.373L37.1585 48.1874L36.6302 47.9197C31.0196 45.0764 23.7295 43.3713 18.1237 42.5268L18.0845 42.5209L18.0455 42.5276C16.4453 42.801 15.0098 43.0085 14.0298 43.0778L14.0205 43.0785L14.0112 43.0798L3.93068 44.5715L9.3115 36.3841L9.57456 35.9839L9.09596 36.003C7.46744 36.0683 5.6696 35.9224 4.121 35.4462C2.56862 34.9688 1.30305 34.1716 0.677066 32.9615C0.0553083 31.7596 0.0312392 30.0841 1.10632 27.7699C2.17961 25.4597 4.33554 22.5446 8.01452 18.8979C10.3577 17.7668 14.3436 16.065 18.726 14.6177C23.1245 13.1651 27.9021 11.9756 31.8134 11.8666C33.697 12.2713 36.318 13.3433 38.6092 15.288C38.6094 15.2881 38.6096 15.2883 38.6098 15.2885Z" stroke="#84829A" stroke-width="0.49225"/>
</svg>
